PathFileType	4	(X/Y/Z)	s09c0101.trc
DataRate	CameraRate	NumFrames	NumMarkers	Units	OrigDataRate	OrigDataStartFrame	OrigNumFrames
200	200	5	50	mm	200	1000	2000
Frame#	Time	racr			lacr			c7			jug			rlel			rdr			llel			ldr			s2			lic			ric			lasi			rasi			rpsi			lpsi			rgt			lgt			rth1			rth2			rth3			rth4			rlfc			rmfc			rsh1			rsh2			rsh3			rsh4			rlmal			rmmal			rcal			rtoe			rmt5			lth1			lth2			lth4			lth3			llfc			lmfc			llmal			lmmal			lcal			lmt5			lsh1			lsh2			lsh3			lsh4			ltoe			SBIKE			LBIKE			RBIKE			
		X1	Y1	Z1	X2	Y2	Z2	X3	Y3	Z3	X4	Y4	Z4	X5	Y5	Z5	X6	Y6	Z6	X7	Y7	Z7	X8	Y8	Z8	X9	Y9	Z9	X10	Y10	Z10	X11	Y11	Z11	X12	Y12	Z12	X13	Y13	Z13	X14	Y14	Z14	X15	Y15	Z15	X16	Y16	Z16	X17	Y17	Z17	X18	Y18	Z18	X19	Y19	Z19	X20	Y20	Z20	X21	Y21	Z21	X22	Y22	Z22	X23	Y23	Z23	X24	Y24	Z24	X25	Y25	Z25	X26	Y26	Z26	X27	Y27	Z27	X28	Y28	Z28	X29	Y29	Z29	X30	Y30	Z30	X31	Y31	Z31	X32	Y32	Z32	X33	Y33	Z33	X34	Y34	Z34	X35	Y35	Z35	X36	Y36	Z36	X37	Y37	Z37	X38	Y38	Z38	X39	Y39	Z39	X40	Y40	Z40	X41	Y41	Z41	X42	Y42	Z42	X43	Y43	Z43	X44	Y44	Z44	X45	Y45	Z45	X46	Y46	Z46	X47	Y47	Z47	X48	Y48	Z48	X49	Y49	Z49	X50	Y50	Z50	
1000	5.0000	538.243752	1247.946912	-106.194483	581.795171	1226.394254	-409.271049	535.938855	1275.746869	-262.653386	508.790135	1137.324308	-256.668495	473.021034	1016.890261	-1.504867	676.174814	884.878321	-52.503897	530.404454	1018.635490	-583.401589	692.041553	874.849951	-462.582274	36.626915	1124.925818	-285.887774	177.027645	1103.069577	-428.000532	175.932236	1134.541595	-130.984117	215.084301	1050.560837	-397.799829	220.382733	1081.735929	-145.735294	64.910525	1161.767423	-228.827854	70.042240	1157.162488	-338.201384	167.440134	1015.310282	-83.225763	127.879490	961.748398	-448.595298	293.055514	962.921963	-98.935106	378.004338	948.150485	-116.017658	443.634591	888.606005	-120.558219	388.548458	972.829313	-141.248691	509.869845	806.682787	-155.712813	478.533523	784.304813	-251.457156	427.810056	755.428759	-114.596549	370.288318	686.666098	-118.912255	289.531260	655.611408	-106.160758	385.061391	665.365412	-149.501476	207.574874	595.165268	-92.595175	207.010914	598.259251	-169.823943	121.958357	614.275554	-125.201469	316.648318	434.473565	-131.909266	245.759902	476.543888	-67.003459	201.368084	845.026671	-446.929363	263.127811	787.073438	-438.348361	294.590442	805.019457	-428.005730	288.232202	700.245334	-429.211111	321.591178	610.284122	-408.668847	325.940597	597.368095	-312.245413	257.426114	248.614121	-414.286014	276.248032	257.528723	-342.952582	191.819958	214.949673	-377.942805	358.831497	160.689292	-433.688137	295.535045	512.300553	-431.986022	306.962910	427.118487	-423.457425	273.375421	344.970420	-421.027959	333.297961	426.323128	-393.024887	449.452843	175.807900	-362.395561	-65.442060	852.760773	-243.914526	21.190429	82.996592	-442.556041	21.080997	84.098183	-44.346033	
1001	5.0050	536.837467	1248.084111	-102.633907	583.926126	1226.988335	-405.723919	536.260632	1276.008460	-258.722708	509.087461	1137.604680	-253.484252	473.008345	1016.073809	0.254658	676.169136	884.785600	-51.924296	531.590549	1021.128946	-581.441662	692.492097	874.925524	-461.930976	35.819252	1126.221467	-288.041779	179.456535	1102.903386	-428.519093	175.564247	1136.089494	-132.496892	216.711614	1050.773885	-397.536082	220.353189	1083.078439	-146.052613	65.066698	1162.488041	-231.083017	71.406070	1157.331219	-340.645140	167.940303	1018.909091	-84.304583	129.725649	961.841324	-450.424013	294.367175	969.169844	-101.016166	379.256505	955.080363	-118.779405	445.702596	896.384243	-122.842533	389.148683	979.370697	-144.504848	513.997075	814.872427	-158.107678	482.505223	790.885910	-253.402150	431.960209	763.541049	-116.416993	376.659622	693.899016	-118.816066	295.472002	661.250618	-106.504333	390.948380	672.560463	-150.155381	214.135181	598.771069	-92.428044	213.387785	602.870376	-170.110839	127.753582	616.275587	-124.539393	326.779103	441.571580	-132.097651	254.963723	481.602384	-67.006695	199.831751	844.330068	-447.763221	260.360793	785.112126	-439.305398	292.254116	802.519096	-429.017240	283.679943	697.841471	-429.853447	314.540915	607.244238	-409.635252	320.068853	594.768300	-312.830648	249.392979	246.168588	-414.320278	268.785355	255.038156	-343.342570	183.554553	213.725669	-377.660831	349.535669	156.611557	-433.445956	288.648899	509.581430	-432.542398	299.690982	424.427338	-423.773875	265.850408	342.337055	-421.167911	326.254392	423.624017	-393.539537	440.421634	170.097764	-362.237810	-65.445986	852.617959	-243.664596	21.195118	83.034514	-442.554005	21.093917	84.103184	-44.344515	
1002	5.0100	535.499872	1248.287555	-99.154292	585.775362	1227.293363	-401.557645	536.574332	1276.254708	-254.773073	509.339663	1137.756372	-250.309245	473.295620	1015.531790	2.207671	676.575181	884.972497	-51.152466	533.046680	1023.534743	-579.150158	692.891700	874.984318	-461.185064	36.627727	1126.144821	-289.632422	181.734582	1102.925485	-428.885629	175.552148	1138.019049	-132.993780	218.187310	1051.045724	-397.050352	220.037024	1084.249439	-146.370017	65.212661	1163.461561	-233.106683	72.533134	1157.864074	-342.602624	168.582632	1023.060454	-85.074939	131.180900	961.720678	-451.673430	295.572525	975.328201	-102.935768	380.394043	961.890543	-121.391805	447.554425	903.887693	-125.192973	389.635352	984.620053	-148.394104	516.829285	823.470318	-159.280169	485.798687	797.500136	-255.016398	435.685965	771.021412	-118.129551	381.712445	700.328020	-119.497925	301.210766	666.218888	-106.776644	396.581211	678.639248	-150.191842	220.614002	601.755020	-92.211134	219.614237	606.086002	-169.962840	133.426984	617.424613	-123.812944	337.189521	448.178040	-132.228627	264.413071	486.121303	-66.977031	197.993129	844.048290	-448.613055	257.497148	783.591133	-440.225599	289.784866	800.392745	-430.096834	279.141520	695.964940	-430.593344	307.962971	604.900074	-410.458374	315.158151	592.812028	-313.400979	241.245868	244.336963	-414.392228	261.285710	253.273923	-343.809906	175.030477	213.178053	-377.173411	339.973870	153.293083	-433.281033	282.160560	507.469060	-432.821482	292.605007	422.298982	-423.926758	258.211396	340.459679	-421.150062	319.342521	421.358012	-393.838203	431.074229	164.934637	-362.135281	-65.445379	852.696374	-243.610812	21.195554	83.069757	-442.529661	21.084457	84.103646	-44.327074	
1003	5.0150	534.366182	1248.761128	-95.374125	587.588180	1227.401080	-397.352809	536.875073	1276.486605	-250.920057	509.574806	1137.780118	-247.019836	473.820863	1015.272590	4.428420	676.780171	884.449239	-50.201741	534.412681	1025.787456	-577.107958	693.310274	875.074264	-460.487960	37.367311	1126.741939	-291.378254	183.855324	1103.115983	-428.974436	175.375730	1140.114171	-134.085197	219.597938	1051.486646	-396.617914	219.486339	1085.363283	-146.578240	65.446351	1164.557359	-234.902639	73.642543	1158.483923	-344.335477	169.562515	1027.762806	-85.556626	132.449861	961.796405	-452.696596	296.696456	981.425498	-104.653293	381.080700	968.848154	-123.527478	448.421224	911.321069	-127.268855	389.958826	990.720992	-151.719426	520.186764	831.358107	-159.816539	488.590696	804.829406	-256.929166	439.107331	778.186026	-119.111538	386.102255	705.428369	-120.447263	306.558073	670.452492	-107.011151	401.874235	684.558220	-150.147641	226.929762	604.103925	-92.074327	224.644368	608.207125	-169.824764	139.133138	617.550415	-123.163284	347.672504	454.567241	-132.468882	273.957355	490.248294	-66.942550	196.164201	844.182335	-449.252552	254.441614	782.492395	-441.354239	287.400142	798.987873	-431.431159	274.614897	694.625042	-431.296636	302.093349	603.275476	-411.146985	311.019577	591.352513	-314.006364	232.642582	243.203757	-413.960156	253.289140	251.723347	-343.706261	166.315859	213.139444	-376.638222	330.070898	150.527355	-432.956222	276.113459	506.045480	-432.972744	285.683731	420.736382	-423.961998	250.472167	339.219032	-421.020087	312.544477	419.702858	-394.192985	421.485818	160.423288	-361.995666	-65.421341	852.771821	-243.514943	21.187663	83.129577	-442.503756	21.065990	84.136881	-44.329913	
1004	5.0200	533.236061	1249.192597	-92.142059	589.245343	1227.384718	-393.421696	537.234070	1276.761651	-247.036929	509.746208	1137.884454	-243.595003	474.598719	1015.232501	6.861651	677.378400	884.280217	-49.472214	536.045704	1027.625253	-574.942703	693.698314	875.132621	-459.716028	38.006725	1127.837297	-293.088743	185.796822	1103.503255	-428.818553	175.247165	1142.271610	-134.961843	220.881930	1051.837881	-396.168433	218.743340	1086.232255	-146.663270	65.645727	1165.970735	-236.477612	74.818401	1159.507727	-345.748931	170.720953	1032.702627	-85.862884	133.419126	962.180723	-453.474720	297.692336	986.910130	-106.429337	381.827057	975.387966	-125.178134	450.807135	918.391541	-129.093838	390.227708	996.143102	-155.103868	522.802377	838.770575	-161.234006	490.828116	810.888697	-257.284588	441.779984	783.874805	-120.557199	389.967405	710.050689	-121.335430	311.615478	673.980675	-107.141932	406.573172	689.861462	-150.475724	233.168433	605.802781	-91.949745	231.848281	609.909779	-169.355481	144.821185	616.999818	-122.763187	358.289315	460.441492	-132.600353	283.674786	493.653327	-66.955960	194.250617	844.569169	-449.747499	251.608524	781.642152	-442.195815	284.953448	797.736490	-432.834215	270.152864	693.744833	-432.014292	296.910591	602.157194	-411.698241	307.612632	590.367755	-314.352549	224.004322	242.704825	-413.745109	245.279403	250.962043	-343.850901	157.443260	213.743381	-376.011062	319.983853	148.438499	-432.728072	270.387757	505.056322	-432.968799	278.969446	419.706190	-423.843841	242.820621	338.599785	-420.781543	305.786159	418.122105	-393.933430	411.651883	156.424378	-361.876921	-65.384920	852.813022	-243.390810	21.199472	83.193463	-442.462733	21.070608	84.117884	-44.291304	
